<svg width="46" height="46" viewBox="0 0 46 46" fill="none" xmlns="http://www.w3.org/2000/svg">
<mask id="mask0_1_409" style="mask-type:alpha" maskUnits="userSpaceOnUse" x="0" y="0" width="46" height="46">
<circle cx="23" cy="23" r="23" fill="white"/>
</mask>
<g mask="url(#mask0_1_409)">
<path fill-rule="evenodd" clip-rule="evenodd" d="M27.8059 9.66939C28.2973 9.80095 28.6474 10.236 28.6717 10.7453L29.6023 30.2041L32.0658 28.9776C32.514 28.7545 33.0541 28.8422 33.4092 29.1957L35.8642 31.6401L39.1796 29.9895C39.5071 29.8265 39.8917 29.8265 40.2192 29.9895L43.7644 31.7545L48.8761 30.5178C48.5891 29.9382 49.4542 30.23 48.8761 30.5178C49.1632 31.0973 49.4542 30.23 48.8761 30.5178L44.2842 34.112C43.9567 34.275 43.5721 34.275 43.2446 34.112L39.6994 32.347L36.1542 34.112C35.706 34.3351 35.1659 34.2474 34.8108 33.8939L32.3559 31.4495L29.0404 33.1001C28.6871 33.276 28.269 33.2613 27.9288 33.0611C27.5886 32.8608 27.3722 32.5019 27.3533 32.1069L26.5124 14.5252L21.3746 22.5641C21.1568 22.9049 20.7789 23.1089 20.3752 23.1035C19.9715 23.0982 19.5991 22.8843 19.3903 22.5378L14.9455 15.1617L12.3985 31.2228C12.3402 31.591 12.1105 31.9093 11.78 32.0802C11.4495 32.2511 11.0576 32.2541 10.7245 32.0882L5.37659 29.4258L0.353655 32.9898C-0.104305 33.4458 0.252608 32.8764 0.252608 32.8764C-0.0958691 32.5307 -0.104305 33.4458 0.353655 32.9898L4.32327 27.1719C4.67831 26.8184 5.21845 26.7307 5.66663 26.9539L10.3398 29.2804L13.1389 11.6293C13.2159 11.1435 13.5875 10.7576 14.0691 10.6633C14.5506 10.569 15.0397 10.7864 15.2934 11.2074L20.4198 19.7146L26.5203 10.1693C26.7947 9.73997 27.3145 9.53784 27.8059 9.66939Z" fill="white"/>
</g>
</svg>
