<svg width="20" height="18" viewBox="0 0 20 18" fill="none" xmlns="http://www.w3.org/2000/svg">
<path fill-rule="evenodd" clip-rule="evenodd" d="M5.12474 1.12469C4.65171 1.12469 4.19802 1.30273 3.86334 1.61913C3.52895 1.93526 3.34033 2.36641 3.34033 2.81388V15.1875C3.34033 15.6349 3.52895 16.0661 3.86334 16.3822C4.19802 16.6986 4.65171 16.8767 5.12474 16.8767H15.8359C16.3092 16.8767 16.7653 16.6986 17.0997 16.3822C17.4344 16.0661 17.6203 15.6349 17.6203 15.1875V2.81388C17.6203 2.36641 17.4344 1.93526 17.0997 1.61913C16.7653 1.30273 16.3092 1.12469 15.8359 1.12469H5.12474V1.12469ZM5.12474 2.25082H15.8359C15.9948 2.25082 16.1453 2.30988 16.2572 2.41563C16.3687 2.5211 16.4315 2.66341 16.4315 2.81388V15.1875C16.4315 15.3379 16.3687 15.4803 16.2572 15.5857C16.1456 15.6915 15.9948 15.7505 15.8359 15.7505H5.12474C4.96587 15.7505 4.81772 15.6915 4.70586 15.5857C4.59429 15.4803 4.53152 15.3379 4.53152 15.1875V2.81388C4.53152 2.66341 4.59429 2.5211 4.70586 2.41563C4.81772 2.30988 4.96587 2.25082 5.12474 2.25082V2.25082Z" fill="#3156C8"/>
<path fill-rule="evenodd" clip-rule="evenodd" d="M8.39808 5.0639C8.07232 5.06362 7.80368 5.31647 7.80249 5.62472V5.625C7.80249 5.93381 8.07113 6.18778 8.39749 6.18778H12.5631C12.8894 6.18778 13.1581 5.93381 13.1581 5.625V5.62472C13.1572 5.31647 12.8885 5.06362 12.5625 5.0639H8.39808Z" fill="#3156C8"/>
<path fill-rule="evenodd" clip-rule="evenodd" d="M8.39808 8.4375C8.39808 8.4375 8.39779 8.4375 8.39749 8.4375C8.07113 8.4375 7.80249 8.69147 7.80249 9V9.00113C7.80249 9.30994 8.07113 9.56363 8.39749 9.56363H12.5631C12.8894 9.56363 13.1581 9.30994 13.1581 9.00113V9C13.1581 8.69147 12.8894 8.4375 12.5631 8.4375C12.5628 8.4375 12.5628 8.4375 12.5625 8.4375H8.39808Z" fill="#3156C8"/>
<path fill-rule="evenodd" clip-rule="evenodd" d="M8.39808 11.8136C8.39808 11.8136 8.39779 11.8136 8.39749 11.8136C8.07113 11.8136 7.80249 12.0676 7.80249 12.3761V12.3767C7.80368 12.6849 8.07232 12.9378 8.39808 12.9375H12.5625C12.8885 12.9378 13.1572 12.6849 13.1581 12.3767C13.1581 12.3767 13.1581 12.3764 13.1581 12.3761C13.1581 12.0676 12.8894 11.8136 12.5631 11.8136C12.5628 11.8136 12.5628 11.8136 12.5625 11.8136H8.39808Z" fill="#3156C8"/>
</svg>
